<mxfile host="app.diagrams.net" modified="2024-11-28T18:02:08.513Z" agent="Mozilla/5.0 (Macintosh; Intel Mac OS X 10_15_7) AppleWebKit/537.36 (KHTML, like Gecko) Chrome/131.0.0.0 Safari/537.36" etag="BE_2_9mEDUfxwKPxS1_p" version="24.5.4" type="google" pages="5">
  <diagram name="Utilisateurs" id="AIJneCesjITjhLKTVZva">
    <mxGraphModel dx="382" dy="291" grid="1" gridSize="10" guides="1" tooltips="1" connect="1" arrows="1" fold="1" page="1" pageScale="1" pageWidth="827" pageHeight="1169" math="0" shadow="0">
      <root>
        <mxCell id="0" />
        <mxCell id="1" parent="0" />
        <mxCell id="EV1wCXqe0kRwNE7FFR0H-2" value="Utilisateur Non Connecté" style="shape=umlActor;verticalLabelPosition=bottom;verticalAlign=top;html=1;outlineConnect=0;" vertex="1" parent="1">
          <mxGeometry x="130" y="78" width="30" height="60" as="geometry" />
        </mxCell>
        <mxCell id="EV1wCXqe0kRwNE7FFR0H-3" value="Utilisateur connecté" style="shape=umlActor;verticalLabelPosition=bottom;verticalAlign=top;html=1;outlineConnect=0;" vertex="1" parent="1">
          <mxGeometry x="130" y="270" width="30" height="60" as="geometry" />
        </mxCell>
        <mxCell id="EV1wCXqe0kRwNE7FFR0H-4" value="Administrateur" style="shape=umlActor;verticalLabelPosition=bottom;verticalAlign=top;html=1;outlineConnect=0;" vertex="1" parent="1">
          <mxGeometry x="130" y="431" width="30" height="60" as="geometry" />
        </mxCell>
        <mxCell id="EV1wCXqe0kRwNE7FFR0H-5" value="Extends" style="endArrow=block;endSize=16;endFill=0;html=1;rounded=0;exitX=0.5;exitY=0;exitDx=0;exitDy=0;exitPerimeter=0;" edge="1" parent="1" source="EV1wCXqe0kRwNE7FFR0H-4" target="EV1wCXqe0kRwNE7FFR0H-3">
          <mxGeometry width="160" relative="1" as="geometry">
            <mxPoint x="145" y="470" as="sourcePoint" />
            <mxPoint x="305" y="470" as="targetPoint" />
          </mxGeometry>
        </mxCell>
        <mxCell id="EV1wCXqe0kRwNE7FFR0H-6" value="S&#39;authentifier" style="ellipse;whiteSpace=wrap;html=1;" vertex="1" parent="1">
          <mxGeometry x="305" y="20" width="140" height="70" as="geometry" />
        </mxCell>
        <mxCell id="EV1wCXqe0kRwNE7FFR0H-7" value="" style="edgeStyle=none;html=1;endArrow=none;verticalAlign=bottom;rounded=0;" edge="1" parent="1" source="EV1wCXqe0kRwNE7FFR0H-2" target="EV1wCXqe0kRwNE7FFR0H-6">
          <mxGeometry width="160" relative="1" as="geometry">
            <mxPoint x="255" y="185" as="sourcePoint" />
            <mxPoint x="415" y="185" as="targetPoint" />
          </mxGeometry>
        </mxCell>
        <mxCell id="EV1wCXqe0kRwNE7FFR0H-8" value="S&#39;inscrire" style="ellipse;whiteSpace=wrap;html=1;" vertex="1" parent="1">
          <mxGeometry x="305" y="105" width="140" height="70" as="geometry" />
        </mxCell>
        <mxCell id="EV1wCXqe0kRwNE7FFR0H-9" style="rounded=0;orthogonalLoop=1;jettySize=auto;html=1;entryX=0.009;entryY=0.428;entryDx=0;entryDy=0;entryPerimeter=0;endArrow=none;endFill=0;" edge="1" parent="1" source="EV1wCXqe0kRwNE7FFR0H-2" target="EV1wCXqe0kRwNE7FFR0H-8">
          <mxGeometry relative="1" as="geometry" />
        </mxCell>
        <mxCell id="EV1wCXqe0kRwNE7FFR0H-10" value="Suspendre temporairement ou définitivement un utilisateur" style="ellipse;whiteSpace=wrap;html=1;" vertex="1" parent="1">
          <mxGeometry x="305" y="430" width="140" height="70" as="geometry" />
        </mxCell>
        <mxCell id="EV1wCXqe0kRwNE7FFR0H-11" style="rounded=0;orthogonalLoop=1;jettySize=auto;html=1;entryX=0;entryY=0.429;entryDx=0;entryDy=0;entryPerimeter=0;endArrow=none;endFill=0;" edge="1" parent="1" source="EV1wCXqe0kRwNE7FFR0H-4" target="EV1wCXqe0kRwNE7FFR0H-10">
          <mxGeometry relative="1" as="geometry" />
        </mxCell>
        <mxCell id="EV1wCXqe0kRwNE7FFR0H-12" value="Modifier son profil" style="ellipse;whiteSpace=wrap;html=1;" vertex="1" parent="1">
          <mxGeometry x="305" y="225" width="140" height="70" as="geometry" />
        </mxCell>
        <mxCell id="EV1wCXqe0kRwNE7FFR0H-13" value="Supprimer son compte&lt;div&gt;(facultatif - pas dans le Cahier des charges)&lt;/div&gt;" style="ellipse;whiteSpace=wrap;html=1;" vertex="1" parent="1">
          <mxGeometry x="305" y="305" width="140" height="70" as="geometry" />
        </mxCell>
        <mxCell id="EV1wCXqe0kRwNE7FFR0H-14" style="rounded=0;orthogonalLoop=1;jettySize=auto;html=1;entryX=0.022;entryY=0.384;entryDx=0;entryDy=0;endArrow=none;endFill=0;entryPerimeter=0;" edge="1" parent="1" source="EV1wCXqe0kRwNE7FFR0H-3" target="EV1wCXqe0kRwNE7FFR0H-13">
          <mxGeometry relative="1" as="geometry">
            <mxPoint x="160" y="305.97" as="sourcePoint" />
            <mxPoint x="305" y="304.97" as="targetPoint" />
          </mxGeometry>
        </mxCell>
        <mxCell id="EV1wCXqe0kRwNE7FFR0H-15" style="rounded=0;orthogonalLoop=1;jettySize=auto;html=1;endArrow=none;endFill=0;" edge="1" parent="1" source="EV1wCXqe0kRwNE7FFR0H-3" target="EV1wCXqe0kRwNE7FFR0H-12">
          <mxGeometry relative="1" as="geometry">
            <mxPoint x="160" y="225" as="sourcePoint" />
            <mxPoint x="305" y="259.03" as="targetPoint" />
          </mxGeometry>
        </mxCell>
      </root>
    </mxGraphModel>
  </diagram>
  <diagram id="ckfCcpromVsjjldkhPe_" name="Equipes">
    <mxGraphModel grid="1" page="1" gridSize="10" guides="1" tooltips="1" connect="1" arrows="1" fold="1" pageScale="1" pageWidth="827" pageHeight="1169" math="0" shadow="0">
      <root>
        <mxCell id="0" />
        <mxCell id="1" parent="0" />
        <mxCell id="fkkiGYWfFbj3ZXvxnUTn-6" style="rounded=0;orthogonalLoop=1;jettySize=auto;html=1;entryX=0;entryY=0.5;entryDx=0;entryDy=0;strokeColor=default;align=center;verticalAlign=middle;fontFamily=Helvetica;fontSize=11;fontColor=default;labelBackgroundColor=default;endArrow=none;endFill=0;" edge="1" parent="1" source="fkkiGYWfFbj3ZXvxnUTn-1" target="fkkiGYWfFbj3ZXvxnUTn-3">
          <mxGeometry relative="1" as="geometry" />
        </mxCell>
        <mxCell id="fkkiGYWfFbj3ZXvxnUTn-7" style="rounded=0;orthogonalLoop=1;jettySize=auto;html=1;strokeColor=default;align=center;verticalAlign=middle;fontFamily=Helvetica;fontSize=11;fontColor=default;labelBackgroundColor=default;endArrow=none;endFill=0;" edge="1" parent="1" source="fkkiGYWfFbj3ZXvxnUTn-1" target="fkkiGYWfFbj3ZXvxnUTn-4">
          <mxGeometry relative="1" as="geometry" />
        </mxCell>
        <mxCell id="fkkiGYWfFbj3ZXvxnUTn-21" style="rounded=0;orthogonalLoop=1;jettySize=auto;html=1;entryX=0;entryY=0.5;entryDx=0;entryDy=0;endArrow=none;endFill=0;" edge="1" parent="1" source="fkkiGYWfFbj3ZXvxnUTn-1" target="fkkiGYWfFbj3ZXvxnUTn-5">
          <mxGeometry relative="1" as="geometry" />
        </mxCell>
        <mxCell id="fkkiGYWfFbj3ZXvxnUTn-1" value="Utilisateur" style="shape=umlActor;html=1;verticalLabelPosition=bottom;verticalAlign=top;align=center;" vertex="1" parent="1">
          <mxGeometry x="130" y="135" width="30" height="60" as="geometry" />
        </mxCell>
        <mxCell id="fkkiGYWfFbj3ZXvxnUTn-15" style="rounded=0;orthogonalLoop=1;jettySize=auto;html=1;entryX=0;entryY=0.5;entryDx=0;entryDy=0;strokeColor=default;align=center;verticalAlign=middle;fontFamily=Helvetica;fontSize=11;fontColor=default;labelBackgroundColor=default;endArrow=none;endFill=0;" edge="1" parent="1" source="fkkiGYWfFbj3ZXvxnUTn-2" target="fkkiGYWfFbj3ZXvxnUTn-14">
          <mxGeometry relative="1" as="geometry" />
        </mxCell>
        <mxCell id="fkkiGYWfFbj3ZXvxnUTn-16" style="rounded=0;orthogonalLoop=1;jettySize=auto;html=1;strokeColor=default;align=center;verticalAlign=middle;fontFamily=Helvetica;fontSize=11;fontColor=default;labelBackgroundColor=default;endArrow=none;endFill=0;" edge="1" parent="1" source="fkkiGYWfFbj3ZXvxnUTn-2" target="fkkiGYWfFbj3ZXvxnUTn-13">
          <mxGeometry relative="1" as="geometry" />
        </mxCell>
        <mxCell id="fkkiGYWfFbj3ZXvxnUTn-17" style="rounded=0;orthogonalLoop=1;jettySize=auto;html=1;entryX=0;entryY=0.5;entryDx=0;entryDy=0;strokeColor=default;align=center;verticalAlign=middle;fontFamily=Helvetica;fontSize=11;fontColor=default;labelBackgroundColor=default;endArrow=none;endFill=0;" edge="1" parent="1" source="fkkiGYWfFbj3ZXvxnUTn-2" target="fkkiGYWfFbj3ZXvxnUTn-12">
          <mxGeometry relative="1" as="geometry" />
        </mxCell>
        <mxCell id="fkkiGYWfFbj3ZXvxnUTn-18" style="rounded=0;orthogonalLoop=1;jettySize=auto;html=1;entryX=0;entryY=0.5;entryDx=0;entryDy=0;endArrow=none;endFill=0;" edge="1" parent="1" source="fkkiGYWfFbj3ZXvxnUTn-2" target="fkkiGYWfFbj3ZXvxnUTn-11">
          <mxGeometry relative="1" as="geometry" />
        </mxCell>
        <mxCell id="fkkiGYWfFbj3ZXvxnUTn-2" value="Utilisateur propriétaire&lt;div&gt;&lt;br&gt;&lt;/div&gt;" style="shape=umlActor;html=1;verticalLabelPosition=bottom;verticalAlign=top;align=center;" vertex="1" parent="1">
          <mxGeometry x="130" y="525" width="30" height="60" as="geometry" />
        </mxCell>
        <mxCell id="fkkiGYWfFbj3ZXvxnUTn-3" value="Créer une équipe" style="ellipse;whiteSpace=wrap;html=1;" vertex="1" parent="1">
          <mxGeometry x="400" y="40" width="140" height="70" as="geometry" />
        </mxCell>
        <mxCell id="fkkiGYWfFbj3ZXvxnUTn-4" value="Demander à rejoindre une équipe existante" style="ellipse;whiteSpace=wrap;html=1;" vertex="1" parent="1">
          <mxGeometry x="400" y="130" width="140" height="70" as="geometry" />
        </mxCell>
        <mxCell id="fkkiGYWfFbj3ZXvxnUTn-5" value="Quitter une équipe" style="ellipse;whiteSpace=wrap;html=1;" vertex="1" parent="1">
          <mxGeometry x="400" y="210" width="140" height="70" as="geometry" />
        </mxCell>
        <mxCell id="fkkiGYWfFbj3ZXvxnUTn-10" value="" style="endArrow=block;endSize=16;endFill=0;html=1;rounded=0;exitX=0.5;exitY=0;exitDx=0;exitDy=0;exitPerimeter=0;" edge="1" parent="1" source="fkkiGYWfFbj3ZXvxnUTn-2" target="fkkiGYWfFbj3ZXvxnUTn-1">
          <mxGeometry width="160" relative="1" as="geometry">
            <mxPoint x="160" y="500" as="sourcePoint" />
            <mxPoint x="320" y="500" as="targetPoint" />
          </mxGeometry>
        </mxCell>
        <mxCell id="fkkiGYWfFbj3ZXvxnUTn-11" value="Modifier les informations d&#39;une de ses équipes" style="ellipse;whiteSpace=wrap;html=1;" vertex="1" parent="1">
          <mxGeometry x="400" y="360" width="140" height="70" as="geometry" />
        </mxCell>
        <mxCell id="fkkiGYWfFbj3ZXvxnUTn-12" value="Inviter un autre utilisateur (via pseudo ou email)" style="ellipse;whiteSpace=wrap;html=1;" vertex="1" parent="1">
          <mxGeometry x="400" y="450" width="140" height="70" as="geometry" />
        </mxCell>
        <mxCell id="fkkiGYWfFbj3ZXvxnUTn-13" value="Supprimer un membre d&#39;une de ses équipes" style="ellipse;whiteSpace=wrap;html=1;" vertex="1" parent="1">
          <mxGeometry x="400" y="540" width="140" height="70" as="geometry" />
        </mxCell>
        <mxCell id="fkkiGYWfFbj3ZXvxnUTn-14" value="Changer le rôle d&#39;un membre d&#39;une de ses équipe&lt;div&gt;(membre ou propriétaire)&lt;/div&gt;" style="ellipse;whiteSpace=wrap;html=1;" vertex="1" parent="1">
          <mxGeometry x="400" y="630" width="140" height="70" as="geometry" />
        </mxCell>
      </root>
    </mxGraphModel>
  </diagram>
  <diagram id="h9WUbp6dP6Dzqn5snd3v" name="Projets">
    <mxGraphModel grid="1" page="1" gridSize="10" guides="1" tooltips="1" connect="1" arrows="1" fold="1" pageScale="1" pageWidth="827" pageHeight="1169" math="0" shadow="0">
      <root>
        <mxCell id="0" />
        <mxCell id="1" parent="0" />
        <mxCell id="z_5-_HLijLuJM8sG8Z-j-1" value="Utilisateur" style="shape=umlActor;html=1;verticalLabelPosition=bottom;verticalAlign=top;align=center;" vertex="1" parent="1">
          <mxGeometry x="130" y="80" width="30" height="60" as="geometry" />
        </mxCell>
        <mxCell id="z_5-_HLijLuJM8sG8Z-j-2" value="Créer un projet" style="ellipse;whiteSpace=wrap;html=1;" vertex="1" parent="1">
          <mxGeometry x="320" y="40" width="140" height="70" as="geometry" />
        </mxCell>
        <mxCell id="z_5-_HLijLuJM8sG8Z-j-3" value="Associer à un ou plusieurs dépôts distants à un projet" style="ellipse;whiteSpace=wrap;html=1;" vertex="1" parent="1">
          <mxGeometry x="320" y="220" width="140" height="70" as="geometry" />
        </mxCell>
        <mxCell id="z_5-_HLijLuJM8sG8Z-j-4" value="Modifier un document rattaché à un projet" style="ellipse;whiteSpace=wrap;html=1;" vertex="1" parent="1">
          <mxGeometry x="590" y="310" width="140" height="70" as="geometry" />
        </mxCell>
        <mxCell id="z_5-_HLijLuJM8sG8Z-j-5" value="Attacher un document à un projet" style="ellipse;whiteSpace=wrap;html=1;" vertex="1" parent="1">
          <mxGeometry x="590" y="220" width="140" height="70" as="geometry" />
        </mxCell>
        <mxCell id="z_5-_HLijLuJM8sG8Z-j-6" value="Gérer des document rattaché à un projet" style="ellipse;whiteSpace=wrap;html=1;" vertex="1" parent="1">
          <mxGeometry x="320" y="310" width="140" height="70" as="geometry" />
        </mxCell>
        <mxCell id="z_5-_HLijLuJM8sG8Z-j-7" value="&amp;lt;&amp;lt;include&amp;gt;&amp;gt;" style="edgeStyle=none;html=1;endArrow=open;verticalAlign=bottom;dashed=1;labelBackgroundColor=none;rounded=0;exitX=1;exitY=0.5;exitDx=0;exitDy=0;entryX=0;entryY=0.5;entryDx=0;entryDy=0;" edge="1" parent="1" source="z_5-_HLijLuJM8sG8Z-j-6" target="z_5-_HLijLuJM8sG8Z-j-5">
          <mxGeometry width="160" relative="1" as="geometry">
            <mxPoint x="490" y="344.5" as="sourcePoint" />
            <mxPoint x="650" y="344.5" as="targetPoint" />
          </mxGeometry>
        </mxCell>
        <mxCell id="z_5-_HLijLuJM8sG8Z-j-8" value="&amp;lt;&amp;lt;include&amp;gt;&amp;gt;" style="edgeStyle=none;html=1;endArrow=open;verticalAlign=bottom;dashed=1;labelBackgroundColor=none;rounded=0;exitX=1;exitY=0.5;exitDx=0;exitDy=0;entryX=0;entryY=0.5;entryDx=0;entryDy=0;" edge="1" parent="1" source="z_5-_HLijLuJM8sG8Z-j-6" target="z_5-_HLijLuJM8sG8Z-j-4">
          <mxGeometry width="160" relative="1" as="geometry">
            <mxPoint x="480" y="430" as="sourcePoint" />
            <mxPoint x="610" y="340" as="targetPoint" />
          </mxGeometry>
        </mxCell>
        <mxCell id="z_5-_HLijLuJM8sG8Z-j-9" value="Supprimer un document rattaché à un projet" style="ellipse;whiteSpace=wrap;html=1;" vertex="1" parent="1">
          <mxGeometry x="600" y="400" width="140" height="70" as="geometry" />
        </mxCell>
        <mxCell id="z_5-_HLijLuJM8sG8Z-j-10" value="&amp;lt;&amp;lt;include&amp;gt;&amp;gt;" style="edgeStyle=none;html=1;endArrow=open;verticalAlign=bottom;dashed=1;labelBackgroundColor=none;rounded=0;exitX=1;exitY=0.5;exitDx=0;exitDy=0;entryX=0;entryY=0.5;entryDx=0;entryDy=0;" edge="1" parent="1" source="z_5-_HLijLuJM8sG8Z-j-6" target="z_5-_HLijLuJM8sG8Z-j-9">
          <mxGeometry width="160" relative="1" as="geometry">
            <mxPoint x="460" y="400" as="sourcePoint" />
            <mxPoint x="590" y="400" as="targetPoint" />
          </mxGeometry>
        </mxCell>
        <mxCell id="z_5-_HLijLuJM8sG8Z-j-11" value="Saisir un commentaire sur un projet" style="ellipse;whiteSpace=wrap;html=1;" vertex="1" parent="1">
          <mxGeometry x="320" y="400" width="140" height="70" as="geometry" />
        </mxCell>
        <mxCell id="z_5-_HLijLuJM8sG8Z-j-12" value="Attacher un emoji à un commentaire" style="ellipse;whiteSpace=wrap;html=1;" vertex="1" parent="1">
          <mxGeometry x="560" y="600" width="140" height="70" as="geometry" />
        </mxCell>
        <mxCell id="z_5-_HLijLuJM8sG8Z-j-13" value="Modifier les informations d&#39;un projet" style="ellipse;whiteSpace=wrap;html=1;" vertex="1" parent="1">
          <mxGeometry x="320" y="130" width="140" height="70" as="geometry" />
        </mxCell>
        <mxCell id="z_5-_HLijLuJM8sG8Z-j-14" value="Répondre à un commentaire" style="ellipse;whiteSpace=wrap;html=1;" vertex="1" parent="1">
          <mxGeometry x="320" y="600" width="140" height="70" as="geometry" />
        </mxCell>
        <mxCell id="z_5-_HLijLuJM8sG8Z-j-16" value="Gérer les utilisateurs associés au projet" style="ellipse;whiteSpace=wrap;html=1;" vertex="1" parent="1">
          <mxGeometry x="320" y="715" width="140" height="70" as="geometry" />
        </mxCell>
        <mxCell id="z_5-_HLijLuJM8sG8Z-j-22" style="rounded=0;orthogonalLoop=1;jettySize=auto;html=1;entryX=0;entryY=0.5;entryDx=0;entryDy=0;endArrow=none;endFill=0;" edge="1" parent="1" source="z_5-_HLijLuJM8sG8Z-j-17" target="z_5-_HLijLuJM8sG8Z-j-13">
          <mxGeometry relative="1" as="geometry" />
        </mxCell>
        <mxCell id="z_5-_HLijLuJM8sG8Z-j-23" style="rounded=0;orthogonalLoop=1;jettySize=auto;html=1;entryX=0;entryY=0.5;entryDx=0;entryDy=0;strokeColor=default;align=center;verticalAlign=middle;fontFamily=Helvetica;fontSize=11;fontColor=default;labelBackgroundColor=default;endArrow=none;endFill=0;" edge="1" parent="1" source="z_5-_HLijLuJM8sG8Z-j-17" target="z_5-_HLijLuJM8sG8Z-j-3">
          <mxGeometry relative="1" as="geometry" />
        </mxCell>
        <mxCell id="z_5-_HLijLuJM8sG8Z-j-24" style="rounded=0;orthogonalLoop=1;jettySize=auto;html=1;entryX=0;entryY=0.5;entryDx=0;entryDy=0;strokeColor=default;align=center;verticalAlign=middle;fontFamily=Helvetica;fontSize=11;fontColor=default;labelBackgroundColor=default;endArrow=none;endFill=0;" edge="1" parent="1" source="z_5-_HLijLuJM8sG8Z-j-17" target="z_5-_HLijLuJM8sG8Z-j-6">
          <mxGeometry relative="1" as="geometry" />
        </mxCell>
        <mxCell id="z_5-_HLijLuJM8sG8Z-j-25" style="rounded=0;orthogonalLoop=1;jettySize=auto;html=1;entryX=0;entryY=0.5;entryDx=0;entryDy=0;strokeColor=default;align=center;verticalAlign=middle;fontFamily=Helvetica;fontSize=11;fontColor=default;labelBackgroundColor=default;endArrow=none;endFill=0;" edge="1" parent="1" source="z_5-_HLijLuJM8sG8Z-j-17" target="z_5-_HLijLuJM8sG8Z-j-11">
          <mxGeometry relative="1" as="geometry" />
        </mxCell>
        <mxCell id="EkDz34vbX7gyowagx0tV-6" style="edgeStyle=none;rounded=0;orthogonalLoop=1;jettySize=auto;html=1;entryX=0;entryY=0.5;entryDx=0;entryDy=0;strokeColor=default;align=center;verticalAlign=middle;fontFamily=Helvetica;fontSize=11;fontColor=default;labelBackgroundColor=default;endArrow=none;endFill=0;" edge="1" parent="1" source="z_5-_HLijLuJM8sG8Z-j-17" target="EkDz34vbX7gyowagx0tV-4">
          <mxGeometry relative="1" as="geometry" />
        </mxCell>
        <mxCell id="z_5-_HLijLuJM8sG8Z-j-17" value="Utilisateur membre" style="shape=umlActor;html=1;verticalLabelPosition=bottom;verticalAlign=top;align=center;" vertex="1" parent="1">
          <mxGeometry x="130" y="320" width="30" height="60" as="geometry" />
        </mxCell>
        <mxCell id="z_5-_HLijLuJM8sG8Z-j-28" style="edgeStyle=orthogonalEdgeStyle;rounded=0;orthogonalLoop=1;jettySize=auto;html=1;entryX=0;entryY=0.5;entryDx=0;entryDy=0;strokeColor=default;align=center;verticalAlign=middle;fontFamily=Helvetica;fontSize=11;fontColor=default;labelBackgroundColor=default;endArrow=none;endFill=0;" edge="1" parent="1" source="z_5-_HLijLuJM8sG8Z-j-18" target="z_5-_HLijLuJM8sG8Z-j-16">
          <mxGeometry relative="1" as="geometry" />
        </mxCell>
        <mxCell id="z_5-_HLijLuJM8sG8Z-j-18" value="Utilisateur propriétaire" style="shape=umlActor;html=1;verticalLabelPosition=bottom;verticalAlign=top;align=center;" vertex="1" parent="1">
          <mxGeometry x="130" y="720" width="30" height="60" as="geometry" />
        </mxCell>
        <mxCell id="z_5-_HLijLuJM8sG8Z-j-19" value="" style="edgeStyle=none;html=1;endArrow=block;endFill=0;endSize=12;verticalAlign=bottom;rounded=0;exitX=0.5;exitY=0;exitDx=0;exitDy=0;exitPerimeter=0;" edge="1" parent="1" source="z_5-_HLijLuJM8sG8Z-j-18" target="z_5-_HLijLuJM8sG8Z-j-17">
          <mxGeometry width="160" relative="1" as="geometry">
            <mxPoint x="110" y="590" as="sourcePoint" />
            <mxPoint x="270" y="590" as="targetPoint" />
          </mxGeometry>
        </mxCell>
        <mxCell id="z_5-_HLijLuJM8sG8Z-j-20" value="" style="edgeStyle=none;html=1;endArrow=block;endFill=0;endSize=12;verticalAlign=bottom;rounded=0;exitX=0.5;exitY=0;exitDx=0;exitDy=0;exitPerimeter=0;" edge="1" parent="1" source="z_5-_HLijLuJM8sG8Z-j-17" target="z_5-_HLijLuJM8sG8Z-j-1">
          <mxGeometry width="160" relative="1" as="geometry">
            <mxPoint x="220" y="420" as="sourcePoint" />
            <mxPoint x="200" y="210" as="targetPoint" />
          </mxGeometry>
        </mxCell>
        <mxCell id="z_5-_HLijLuJM8sG8Z-j-21" value="" style="edgeStyle=none;html=1;endArrow=none;verticalAlign=bottom;rounded=0;entryX=0;entryY=0.5;entryDx=0;entryDy=0;" edge="1" parent="1" source="z_5-_HLijLuJM8sG8Z-j-1" target="z_5-_HLijLuJM8sG8Z-j-2">
          <mxGeometry width="160" relative="1" as="geometry">
            <mxPoint x="170" y="120" as="sourcePoint" />
            <mxPoint x="330" y="120" as="targetPoint" />
          </mxGeometry>
        </mxCell>
        <mxCell id="z_5-_HLijLuJM8sG8Z-j-29" value="Définir un role pour chaque Utilisateur" style="ellipse;whiteSpace=wrap;html=1;" vertex="1" parent="1">
          <mxGeometry x="600" y="715" width="140" height="70" as="geometry" />
        </mxCell>
        <mxCell id="z_5-_HLijLuJM8sG8Z-j-31" value="&amp;lt;&amp;lt;include&amp;gt;&amp;gt;" style="edgeStyle=none;html=1;endArrow=open;verticalAlign=bottom;dashed=1;labelBackgroundColor=none;rounded=0;strokeColor=default;align=center;fontFamily=Helvetica;fontSize=11;fontColor=default;exitX=1;exitY=0.5;exitDx=0;exitDy=0;entryX=0;entryY=0.5;entryDx=0;entryDy=0;" edge="1" parent="1" source="z_5-_HLijLuJM8sG8Z-j-16" target="z_5-_HLijLuJM8sG8Z-j-29">
          <mxGeometry width="160" relative="1" as="geometry">
            <mxPoint x="560" y="654.5" as="sourcePoint" />
            <mxPoint x="720" y="654.5" as="targetPoint" />
          </mxGeometry>
        </mxCell>
        <mxCell id="EkDz34vbX7gyowagx0tV-1" value="Associer un projet à une équipe" style="ellipse;whiteSpace=wrap;html=1;" vertex="1" parent="1">
          <mxGeometry x="590" y="40" width="140" height="70" as="geometry" />
        </mxCell>
        <mxCell id="EkDz34vbX7gyowagx0tV-2" value="&amp;lt;&amp;lt;extend&amp;gt;&amp;gt;" style="edgeStyle=none;html=1;startArrow=open;endArrow=none;startSize=12;verticalAlign=bottom;dashed=1;labelBackgroundColor=none;rounded=0;strokeColor=default;align=center;fontFamily=Helvetica;fontSize=11;fontColor=default;exitX=1;exitY=0.5;exitDx=0;exitDy=0;entryX=0;entryY=0.5;entryDx=0;entryDy=0;" edge="1" parent="1" source="z_5-_HLijLuJM8sG8Z-j-2" target="EkDz34vbX7gyowagx0tV-1">
          <mxGeometry width="160" relative="1" as="geometry">
            <mxPoint x="450" y="120" as="sourcePoint" />
            <mxPoint x="610" y="120" as="targetPoint" />
          </mxGeometry>
        </mxCell>
        <mxCell id="EkDz34vbX7gyowagx0tV-3" value="&amp;lt;&amp;lt;extend&amp;gt;&amp;gt;" style="edgeStyle=none;html=1;startArrow=open;endArrow=none;startSize=12;verticalAlign=bottom;dashed=1;labelBackgroundColor=none;rounded=0;strokeColor=default;align=center;fontFamily=Helvetica;fontSize=11;fontColor=default;entryX=0.5;entryY=0;entryDx=0;entryDy=0;exitX=0.5;exitY=1;exitDx=0;exitDy=0;" edge="1" parent="1" source="EkDz34vbX7gyowagx0tV-4" target="z_5-_HLijLuJM8sG8Z-j-14">
          <mxGeometry width="160" relative="1" as="geometry">
            <mxPoint x="400" y="490" as="sourcePoint" />
            <mxPoint x="560" y="490" as="targetPoint" />
          </mxGeometry>
        </mxCell>
        <mxCell id="EkDz34vbX7gyowagx0tV-4" value="Visualiser les commentaires d&#39;un projet" style="ellipse;whiteSpace=wrap;html=1;" vertex="1" parent="1">
          <mxGeometry x="320" y="490" width="140" height="70" as="geometry" />
        </mxCell>
        <mxCell id="EkDz34vbX7gyowagx0tV-5" value="&amp;lt;&amp;lt;extend&amp;gt;&amp;gt;" style="edgeStyle=none;html=1;startArrow=open;endArrow=none;startSize=12;verticalAlign=bottom;dashed=1;labelBackgroundColor=none;rounded=0;strokeColor=default;align=center;fontFamily=Helvetica;fontSize=11;fontColor=default;entryX=0.5;entryY=0;entryDx=0;entryDy=0;exitX=0.5;exitY=1;exitDx=0;exitDy=0;" edge="1" parent="1" source="EkDz34vbX7gyowagx0tV-4" target="z_5-_HLijLuJM8sG8Z-j-12">
          <mxGeometry width="160" relative="1" as="geometry">
            <mxPoint x="590" y="650" as="sourcePoint" />
            <mxPoint x="460" y="670" as="targetPoint" />
          </mxGeometry>
        </mxCell>
      </root>
    </mxGraphModel>
  </diagram>
  <diagram id="D9sY0n4Cr6PG4xLdfQQz" name="Backlogs Projet">
    <mxGraphModel grid="1" page="1" gridSize="10" guides="1" tooltips="1" connect="1" arrows="1" fold="1" pageScale="1" pageWidth="827" pageHeight="1169" math="0" shadow="0">
      <root>
        <mxCell id="0" />
        <mxCell id="1" parent="0" />
        <mxCell id="4WN-YmiEMWMEpIuRIN3w-4" style="edgeStyle=none;rounded=0;orthogonalLoop=1;jettySize=auto;html=1;entryX=0;entryY=0.5;entryDx=0;entryDy=0;strokeColor=default;align=center;verticalAlign=middle;fontFamily=Helvetica;fontSize=11;fontColor=default;labelBackgroundColor=default;endArrow=none;endFill=0;" edge="1" parent="1" source="d3dFBQkpbvgiBbpjayFe-1" target="TnXj-xJZPRyOx3FBW5II-1">
          <mxGeometry relative="1" as="geometry" />
        </mxCell>
        <mxCell id="4WN-YmiEMWMEpIuRIN3w-5" style="edgeStyle=none;rounded=0;orthogonalLoop=1;jettySize=auto;html=1;entryX=0;entryY=0.5;entryDx=0;entryDy=0;strokeColor=default;align=center;verticalAlign=middle;fontFamily=Helvetica;fontSize=11;fontColor=default;labelBackgroundColor=default;endArrow=none;endFill=0;" edge="1" parent="1" source="d3dFBQkpbvgiBbpjayFe-1" target="TnXj-xJZPRyOx3FBW5II-6">
          <mxGeometry relative="1" as="geometry" />
        </mxCell>
        <mxCell id="4WN-YmiEMWMEpIuRIN3w-6" style="edgeStyle=none;rounded=0;orthogonalLoop=1;jettySize=auto;html=1;entryX=0;entryY=0.5;entryDx=0;entryDy=0;strokeColor=default;align=center;verticalAlign=middle;fontFamily=Helvetica;fontSize=11;fontColor=default;labelBackgroundColor=default;endArrow=none;endFill=0;" edge="1" parent="1" source="d3dFBQkpbvgiBbpjayFe-1" target="d3dFBQkpbvgiBbpjayFe-6">
          <mxGeometry relative="1" as="geometry" />
        </mxCell>
        <mxCell id="4WN-YmiEMWMEpIuRIN3w-8" style="edgeStyle=none;rounded=0;orthogonalLoop=1;jettySize=auto;html=1;entryX=0;entryY=0.5;entryDx=0;entryDy=0;strokeColor=default;align=center;verticalAlign=middle;fontFamily=Helvetica;fontSize=11;fontColor=default;labelBackgroundColor=default;endArrow=none;endFill=0;" edge="1" parent="1" source="d3dFBQkpbvgiBbpjayFe-1" target="d3dFBQkpbvgiBbpjayFe-5">
          <mxGeometry relative="1" as="geometry" />
        </mxCell>
        <mxCell id="4WN-YmiEMWMEpIuRIN3w-9" style="edgeStyle=none;rounded=0;orthogonalLoop=1;jettySize=auto;html=1;entryX=0;entryY=0.5;entryDx=0;entryDy=0;strokeColor=default;align=center;verticalAlign=middle;fontFamily=Helvetica;fontSize=11;fontColor=default;labelBackgroundColor=default;endArrow=none;endFill=0;" edge="1" parent="1" source="d3dFBQkpbvgiBbpjayFe-1" target="d3dFBQkpbvgiBbpjayFe-15">
          <mxGeometry relative="1" as="geometry" />
        </mxCell>
        <mxCell id="d3dFBQkpbvgiBbpjayFe-1" value="Utilisateur MEMBRE&lt;div&gt;&lt;br&gt;&lt;/div&gt;" style="shape=umlActor;html=1;verticalLabelPosition=bottom;verticalAlign=top;align=center;" vertex="1" parent="1">
          <mxGeometry x="80" y="290" width="30" height="60" as="geometry" />
        </mxCell>
        <mxCell id="d3dFBQkpbvgiBbpjayFe-36" style="edgeStyle=none;rounded=0;orthogonalLoop=1;jettySize=auto;html=1;entryX=0;entryY=0.5;entryDx=0;entryDy=0;strokeColor=default;align=center;verticalAlign=middle;fontFamily=Helvetica;fontSize=11;fontColor=default;labelBackgroundColor=default;endArrow=none;endFill=0;" edge="1" parent="1" source="d3dFBQkpbvgiBbpjayFe-2" target="d3dFBQkpbvgiBbpjayFe-35">
          <mxGeometry relative="1" as="geometry" />
        </mxCell>
        <mxCell id="ctkNCcSgdCdqEx3VNXXU-2" style="edgeStyle=none;rounded=0;orthogonalLoop=1;jettySize=auto;html=1;entryX=0;entryY=0.5;entryDx=0;entryDy=0;strokeColor=default;align=center;verticalAlign=middle;fontFamily=Helvetica;fontSize=11;fontColor=default;labelBackgroundColor=default;endArrow=none;endFill=0;" edge="1" parent="1" source="d3dFBQkpbvgiBbpjayFe-2" target="ctkNCcSgdCdqEx3VNXXU-1">
          <mxGeometry relative="1" as="geometry" />
        </mxCell>
        <mxCell id="d3dFBQkpbvgiBbpjayFe-2" value="Utilisateur SCRUM MASTER&lt;div&gt;&lt;br&gt;&lt;/div&gt;" style="shape=umlActor;html=1;verticalLabelPosition=bottom;verticalAlign=top;align=center;" vertex="1" parent="1">
          <mxGeometry x="80" y="840" width="30" height="60" as="geometry" />
        </mxCell>
        <mxCell id="4WN-YmiEMWMEpIuRIN3w-10" style="edgeStyle=none;rounded=0;orthogonalLoop=1;jettySize=auto;html=1;entryX=0;entryY=0.5;entryDx=0;entryDy=0;strokeColor=default;align=center;verticalAlign=middle;fontFamily=Helvetica;fontSize=11;fontColor=default;labelBackgroundColor=default;endArrow=none;endFill=0;" edge="1" parent="1" source="d3dFBQkpbvgiBbpjayFe-3" target="d3dFBQkpbvgiBbpjayFe-7">
          <mxGeometry relative="1" as="geometry" />
        </mxCell>
        <mxCell id="d3dFBQkpbvgiBbpjayFe-3" value="Utilisateur PRODUCT OWNER&lt;div&gt;&lt;br&gt;&lt;/div&gt;" style="shape=umlActor;html=1;verticalLabelPosition=bottom;verticalAlign=top;align=center;" vertex="1" parent="1">
          <mxGeometry x="80" y="615" width="30" height="60" as="geometry" />
        </mxCell>
        <mxCell id="d3dFBQkpbvgiBbpjayFe-4" value="Utilisateur VISITEUR&lt;div&gt;&lt;br&gt;&lt;/div&gt;" style="shape=umlActor;html=1;verticalLabelPosition=bottom;verticalAlign=top;align=center;" vertex="1" parent="1">
          <mxGeometry x="80" y="75" width="30" height="60" as="geometry" />
        </mxCell>
        <mxCell id="d3dFBQkpbvgiBbpjayFe-6" value="Gérer des fiches de bug associées à une user story" style="ellipse;whiteSpace=wrap;html=1;fontFamily=Helvetica;fontSize=11;fontColor=default;labelBackgroundColor=default;" vertex="1" parent="1">
          <mxGeometry x="310" y="340" width="140" height="70" as="geometry" />
        </mxCell>
        <mxCell id="d3dFBQkpbvgiBbpjayFe-7" value="Gérer des user stories" style="ellipse;whiteSpace=wrap;html=1;fontFamily=Helvetica;fontSize=11;fontColor=default;labelBackgroundColor=default;" vertex="1" parent="1">
          <mxGeometry x="310" y="610" width="140" height="70" as="geometry" />
        </mxCell>
        <mxCell id="d3dFBQkpbvgiBbpjayFe-15" value="Consulter les user stories" style="ellipse;whiteSpace=wrap;html=1;fontFamily=Helvetica;fontSize=11;fontColor=default;labelBackgroundColor=default;" vertex="1" parent="1">
          <mxGeometry x="310" y="520" width="140" height="70" as="geometry" />
        </mxCell>
        <mxCell id="d3dFBQkpbvgiBbpjayFe-27" value="Planifier d&#39;autres évènements" style="ellipse;whiteSpace=wrap;html=1;fontFamily=Helvetica;fontSize=11;fontColor=default;labelBackgroundColor=default;" vertex="1" parent="1">
          <mxGeometry x="610" y="970" width="140" height="70" as="geometry" />
        </mxCell>
        <mxCell id="d3dFBQkpbvgiBbpjayFe-35" value="Planifier des évènéments pour un projet" style="ellipse;whiteSpace=wrap;html=1;fontFamily=Helvetica;fontSize=11;fontColor=default;labelBackgroundColor=default;" vertex="1" parent="1">
          <mxGeometry x="310" y="880" width="140" height="70" as="geometry" />
        </mxCell>
        <mxCell id="d3dFBQkpbvgiBbpjayFe-37" value="Planifier une revue de projet" style="ellipse;whiteSpace=wrap;html=1;fontFamily=Helvetica;fontSize=11;fontColor=default;labelBackgroundColor=default;" vertex="1" parent="1">
          <mxGeometry x="610" y="880" width="140" height="70" as="geometry" />
        </mxCell>
        <mxCell id="d3dFBQkpbvgiBbpjayFe-40" value="&amp;lt;&amp;lt;include&amp;gt;&amp;gt;" style="edgeStyle=none;html=1;endArrow=open;verticalAlign=bottom;dashed=1;labelBackgroundColor=none;rounded=0;strokeColor=default;align=center;fontFamily=Helvetica;fontSize=11;fontColor=default;exitX=1;exitY=0.5;exitDx=0;exitDy=0;" edge="1" parent="1" source="d3dFBQkpbvgiBbpjayFe-35" target="d3dFBQkpbvgiBbpjayFe-37">
          <mxGeometry width="160" relative="1" as="geometry">
            <mxPoint x="450" y="954" as="sourcePoint" />
            <mxPoint x="530" y="1219" as="targetPoint" />
          </mxGeometry>
        </mxCell>
        <mxCell id="VLzAWTbGbqtA1_QY9y-e-2" value="&amp;lt;&amp;lt;include&amp;gt;&amp;gt;" style="edgeStyle=none;html=1;endArrow=open;verticalAlign=bottom;dashed=1;labelBackgroundColor=none;rounded=0;strokeColor=default;align=center;fontFamily=Helvetica;fontSize=11;fontColor=default;entryX=0;entryY=0.5;entryDx=0;entryDy=0;exitX=1;exitY=0.5;exitDx=0;exitDy=0;" edge="1" parent="1" source="d3dFBQkpbvgiBbpjayFe-35" target="d3dFBQkpbvgiBbpjayFe-27">
          <mxGeometry width="160" relative="1" as="geometry">
            <mxPoint x="500" y="989" as="sourcePoint" />
            <mxPoint x="490" y="1219" as="targetPoint" />
          </mxGeometry>
        </mxCell>
        <mxCell id="ctkNCcSgdCdqEx3VNXXU-1" value="Renseigner sur chaque tâche en cours l&#39;effort restant" style="ellipse;whiteSpace=wrap;html=1;fontFamily=Helvetica;fontSize=11;fontColor=default;labelBackgroundColor=default;" vertex="1" parent="1">
          <mxGeometry x="310" y="720" width="140" height="70" as="geometry" />
        </mxCell>
        <mxCell id="TnXj-xJZPRyOx3FBW5II-1" value="Visualiser l&#39;avancée des développements" style="ellipse;whiteSpace=wrap;html=1;fontFamily=Helvetica;fontSize=11;fontColor=default;labelBackgroundColor=default;" vertex="1" parent="1">
          <mxGeometry x="310" y="160" width="140" height="70" as="geometry" />
        </mxCell>
        <mxCell id="TnXj-xJZPRyOx3FBW5II-6" value="Consulter le backlog du projet" style="ellipse;whiteSpace=wrap;html=1;fontFamily=Helvetica;fontSize=11;fontColor=default;labelBackgroundColor=default;" vertex="1" parent="1">
          <mxGeometry x="310" y="250" width="140" height="70" as="geometry" />
        </mxCell>
        <mxCell id="TnXj-xJZPRyOx3FBW5II-10" value="Consulter certaines données d&#39;un projet" style="ellipse;whiteSpace=wrap;html=1;fontFamily=Helvetica;fontSize=11;fontColor=default;labelBackgroundColor=default;" vertex="1" parent="1">
          <mxGeometry x="310" y="70" width="140" height="70" as="geometry" />
        </mxCell>
        <mxCell id="TnXj-xJZPRyOx3FBW5II-11" style="edgeStyle=none;rounded=0;orthogonalLoop=1;jettySize=auto;html=1;entryX=-0.017;entryY=0.538;entryDx=0;entryDy=0;entryPerimeter=0;strokeColor=default;align=center;verticalAlign=middle;fontFamily=Helvetica;fontSize=11;fontColor=default;labelBackgroundColor=default;endArrow=none;endFill=0;" edge="1" parent="1" source="d3dFBQkpbvgiBbpjayFe-4" target="TnXj-xJZPRyOx3FBW5II-10">
          <mxGeometry relative="1" as="geometry" />
        </mxCell>
        <mxCell id="TnXj-xJZPRyOx3FBW5II-12" value="Consulter le burndown chart" style="ellipse;whiteSpace=wrap;html=1;fontFamily=Helvetica;fontSize=11;fontColor=default;labelBackgroundColor=default;" vertex="1" parent="1">
          <mxGeometry x="610" y="70" width="140" height="70" as="geometry" />
        </mxCell>
        <mxCell id="TnXj-xJZPRyOx3FBW5II-13" value="Consulter le tableaux de l&#39;avancée des tâches" style="ellipse;whiteSpace=wrap;html=1;fontFamily=Helvetica;fontSize=11;fontColor=default;labelBackgroundColor=default;" vertex="1" parent="1">
          <mxGeometry x="610" y="160" width="140" height="70" as="geometry" />
        </mxCell>
        <mxCell id="TnXj-xJZPRyOx3FBW5II-14" value="Consulter les comptes-rendu de démo" style="ellipse;whiteSpace=wrap;html=1;fontFamily=Helvetica;fontSize=11;fontColor=default;labelBackgroundColor=default;" vertex="1" parent="1">
          <mxGeometry x="610" y="250" width="140" height="70" as="geometry" />
        </mxCell>
        <mxCell id="TnXj-xJZPRyOx3FBW5II-15" value="Consulter le planning des évènements" style="ellipse;whiteSpace=wrap;html=1;fontFamily=Helvetica;fontSize=11;fontColor=default;labelBackgroundColor=default;" vertex="1" parent="1">
          <mxGeometry x="610" y="340" width="140" height="70" as="geometry" />
        </mxCell>
        <mxCell id="TnXj-xJZPRyOx3FBW5II-16" value="&amp;lt;&amp;lt;include&amp;gt;&amp;gt;" style="edgeStyle=none;html=1;endArrow=open;verticalAlign=bottom;dashed=1;labelBackgroundColor=none;rounded=0;strokeColor=default;align=center;fontFamily=Helvetica;fontSize=11;fontColor=default;exitX=1;exitY=0.5;exitDx=0;exitDy=0;entryX=0;entryY=0.5;entryDx=0;entryDy=0;" edge="1" parent="1" source="TnXj-xJZPRyOx3FBW5II-10" target="TnXj-xJZPRyOx3FBW5II-12">
          <mxGeometry width="160" relative="1" as="geometry">
            <mxPoint x="460" y="150" as="sourcePoint" />
            <mxPoint x="600" y="140" as="targetPoint" />
          </mxGeometry>
        </mxCell>
        <mxCell id="TnXj-xJZPRyOx3FBW5II-17" value="&amp;lt;&amp;lt;include&amp;gt;&amp;gt;" style="edgeStyle=none;html=1;endArrow=open;verticalAlign=bottom;dashed=1;labelBackgroundColor=none;rounded=0;strokeColor=default;align=center;fontFamily=Helvetica;fontSize=11;fontColor=default;exitX=1;exitY=0.5;exitDx=0;exitDy=0;entryX=0;entryY=0.5;entryDx=0;entryDy=0;" edge="1" parent="1" source="TnXj-xJZPRyOx3FBW5II-10" target="TnXj-xJZPRyOx3FBW5II-13">
          <mxGeometry width="160" relative="1" as="geometry">
            <mxPoint x="464" y="160" as="sourcePoint" />
            <mxPoint x="624" y="160" as="targetPoint" />
          </mxGeometry>
        </mxCell>
        <mxCell id="TnXj-xJZPRyOx3FBW5II-18" value="&amp;lt;&amp;lt;include&amp;gt;&amp;gt;" style="edgeStyle=none;html=1;endArrow=open;verticalAlign=bottom;dashed=1;labelBackgroundColor=none;rounded=0;strokeColor=default;align=center;fontFamily=Helvetica;fontSize=11;fontColor=default;exitX=1;exitY=0.5;exitDx=0;exitDy=0;entryX=0;entryY=0.5;entryDx=0;entryDy=0;" edge="1" parent="1" source="TnXj-xJZPRyOx3FBW5II-10" target="TnXj-xJZPRyOx3FBW5II-14">
          <mxGeometry width="160" relative="1" as="geometry">
            <mxPoint x="430" y="180" as="sourcePoint" />
            <mxPoint x="590" y="270" as="targetPoint" />
          </mxGeometry>
        </mxCell>
        <mxCell id="TnXj-xJZPRyOx3FBW5II-19" value="&amp;lt;&amp;lt;include&amp;gt;&amp;gt;" style="edgeStyle=none;html=1;endArrow=open;verticalAlign=bottom;dashed=1;labelBackgroundColor=none;rounded=0;strokeColor=default;align=center;fontFamily=Helvetica;fontSize=11;fontColor=default;exitX=1;exitY=0.5;exitDx=0;exitDy=0;entryX=0;entryY=0.5;entryDx=0;entryDy=0;" edge="1" parent="1" source="TnXj-xJZPRyOx3FBW5II-10" target="TnXj-xJZPRyOx3FBW5II-15">
          <mxGeometry width="160" relative="1" as="geometry">
            <mxPoint x="430" y="160" as="sourcePoint" />
            <mxPoint x="590" y="340" as="targetPoint" />
          </mxGeometry>
        </mxCell>
        <mxCell id="TnXj-xJZPRyOx3FBW5II-21" value="Créer une fiche de bug associée à une user story" style="ellipse;whiteSpace=wrap;html=1;fontFamily=Helvetica;fontSize=11;fontColor=default;labelBackgroundColor=default;" vertex="1" parent="1">
          <mxGeometry x="850" y="240" width="140" height="70" as="geometry" />
        </mxCell>
        <mxCell id="TnXj-xJZPRyOx3FBW5II-22" value="Modifier une fiche de bug associée à une user story" style="ellipse;whiteSpace=wrap;html=1;fontFamily=Helvetica;fontSize=11;fontColor=default;labelBackgroundColor=default;" vertex="1" parent="1">
          <mxGeometry x="850" y="330" width="140" height="70" as="geometry" />
        </mxCell>
        <mxCell id="TnXj-xJZPRyOx3FBW5II-23" value="Supprimer une fiche de bug associée à une user story" style="ellipse;whiteSpace=wrap;html=1;fontFamily=Helvetica;fontSize=11;fontColor=default;labelBackgroundColor=default;" vertex="1" parent="1">
          <mxGeometry x="850" y="420" width="140" height="70" as="geometry" />
        </mxCell>
        <mxCell id="TnXj-xJZPRyOx3FBW5II-24" value="&amp;lt;&amp;lt;include&amp;gt;&amp;gt;" style="edgeStyle=none;html=1;endArrow=open;verticalAlign=bottom;dashed=1;labelBackgroundColor=none;rounded=0;strokeColor=default;align=center;fontFamily=Helvetica;fontSize=11;fontColor=default;entryX=0;entryY=0.5;entryDx=0;entryDy=0;exitX=1;exitY=0.5;exitDx=0;exitDy=0;" edge="1" parent="1" source="d3dFBQkpbvgiBbpjayFe-6" target="TnXj-xJZPRyOx3FBW5II-21">
          <mxGeometry x="0.0203" y="-11" width="160" relative="1" as="geometry">
            <mxPoint x="500" y="420" as="sourcePoint" />
            <mxPoint x="849.9999999999989" y="270" as="targetPoint" />
            <Array as="points">
              <mxPoint x="790" y="455" />
              <mxPoint x="790" y="275" />
            </Array>
            <mxPoint as="offset" />
          </mxGeometry>
        </mxCell>
        <mxCell id="TnXj-xJZPRyOx3FBW5II-25" value="&amp;lt;&amp;lt;include&amp;gt;&amp;gt;" style="edgeStyle=none;html=1;endArrow=open;verticalAlign=bottom;dashed=1;labelBackgroundColor=none;rounded=0;strokeColor=default;align=center;fontFamily=Helvetica;fontSize=11;fontColor=default;entryX=0;entryY=0.5;entryDx=0;entryDy=0;exitX=1;exitY=0.5;exitDx=0;exitDy=0;" edge="1" parent="1" source="d3dFBQkpbvgiBbpjayFe-6" target="TnXj-xJZPRyOx3FBW5II-22">
          <mxGeometry x="-0.0045" y="-8" width="160" relative="1" as="geometry">
            <mxPoint x="500" y="410" as="sourcePoint" />
            <mxPoint x="849.9999999999989" y="360" as="targetPoint" />
            <Array as="points">
              <mxPoint x="790" y="455" />
              <mxPoint x="790" y="365" />
            </Array>
            <mxPoint as="offset" />
          </mxGeometry>
        </mxCell>
        <mxCell id="TnXj-xJZPRyOx3FBW5II-26" value="&amp;lt;&amp;lt;include&amp;gt;&amp;gt;" style="edgeStyle=none;html=1;endArrow=open;verticalAlign=bottom;dashed=1;labelBackgroundColor=none;rounded=0;strokeColor=default;align=center;fontFamily=Helvetica;fontSize=11;fontColor=default;entryX=0;entryY=0.5;entryDx=0;entryDy=0;exitX=1;exitY=0.5;exitDx=0;exitDy=0;" edge="1" parent="1" source="d3dFBQkpbvgiBbpjayFe-6" target="TnXj-xJZPRyOx3FBW5II-23">
          <mxGeometry x="-0.0347" y="-10" width="160" relative="1" as="geometry">
            <mxPoint x="630" y="560" as="sourcePoint" />
            <mxPoint x="876" y="440" as="targetPoint" />
            <Array as="points">
              <mxPoint x="790" y="455" />
            </Array>
            <mxPoint as="offset" />
          </mxGeometry>
        </mxCell>
        <mxCell id="TnXj-xJZPRyOx3FBW5II-27" value="Créer une tâche associée à une user story" style="ellipse;whiteSpace=wrap;html=1;fontFamily=Helvetica;fontSize=11;fontColor=default;labelBackgroundColor=default;" vertex="1" parent="1">
          <mxGeometry x="850" y="530" width="140" height="70" as="geometry" />
        </mxCell>
        <mxCell id="TnXj-xJZPRyOx3FBW5II-30" value="Modifier une tâche associée à une user story" style="ellipse;whiteSpace=wrap;html=1;fontFamily=Helvetica;fontSize=11;fontColor=default;labelBackgroundColor=default;" vertex="1" parent="1">
          <mxGeometry x="850" y="620" width="140" height="70" as="geometry" />
        </mxCell>
        <mxCell id="TnXj-xJZPRyOx3FBW5II-31" value="Modifier une tâche associée à une user story" style="ellipse;whiteSpace=wrap;html=1;fontFamily=Helvetica;fontSize=11;fontColor=default;labelBackgroundColor=default;" vertex="1" parent="1">
          <mxGeometry x="850" y="710" width="140" height="70" as="geometry" />
        </mxCell>
        <mxCell id="TnXj-xJZPRyOx3FBW5II-32" value="&amp;lt;&amp;lt;include&amp;gt;&amp;gt;" style="edgeStyle=none;html=1;endArrow=open;verticalAlign=bottom;dashed=1;labelBackgroundColor=none;rounded=0;strokeColor=default;align=center;fontFamily=Helvetica;fontSize=11;fontColor=default;entryX=0;entryY=0.5;entryDx=0;entryDy=0;exitX=1;exitY=0.5;exitDx=0;exitDy=0;" edge="1" parent="1" source="d3dFBQkpbvgiBbpjayFe-5" target="TnXj-xJZPRyOx3FBW5II-27">
          <mxGeometry width="160" relative="1" as="geometry">
            <mxPoint x="610" y="660" as="sourcePoint" />
            <mxPoint x="856" y="450" as="targetPoint" />
            <Array as="points">
              <mxPoint x="790" y="595" />
              <mxPoint x="790" y="565" />
            </Array>
          </mxGeometry>
        </mxCell>
        <mxCell id="TnXj-xJZPRyOx3FBW5II-33" value="&amp;lt;&amp;lt;include&amp;gt;&amp;gt;" style="edgeStyle=none;html=1;endArrow=open;verticalAlign=bottom;dashed=1;labelBackgroundColor=none;rounded=0;strokeColor=default;align=center;fontFamily=Helvetica;fontSize=11;fontColor=default;entryX=0;entryY=0.5;entryDx=0;entryDy=0;exitX=1;exitY=0.5;exitDx=0;exitDy=0;" edge="1" parent="1" source="d3dFBQkpbvgiBbpjayFe-5" target="TnXj-xJZPRyOx3FBW5II-30">
          <mxGeometry width="160" relative="1" as="geometry">
            <mxPoint x="604" y="640" as="sourcePoint" />
            <mxPoint x="850" y="610" as="targetPoint" />
            <Array as="points">
              <mxPoint x="790" y="595" />
              <mxPoint x="790" y="655" />
            </Array>
          </mxGeometry>
        </mxCell>
        <mxCell id="TnXj-xJZPRyOx3FBW5II-34" value="&amp;lt;&amp;lt;include&amp;gt;&amp;gt;" style="edgeStyle=none;html=1;endArrow=open;verticalAlign=bottom;dashed=1;labelBackgroundColor=none;rounded=0;strokeColor=default;align=center;fontFamily=Helvetica;fontSize=11;fontColor=default;entryX=0;entryY=0.5;entryDx=0;entryDy=0;exitX=1;exitY=0.5;exitDx=0;exitDy=0;" edge="1" parent="1" source="d3dFBQkpbvgiBbpjayFe-5" target="TnXj-xJZPRyOx3FBW5II-31">
          <mxGeometry width="160" relative="1" as="geometry">
            <mxPoint x="604" y="670" as="sourcePoint" />
            <mxPoint x="850" y="730" as="targetPoint" />
            <Array as="points">
              <mxPoint x="790" y="595" />
              <mxPoint x="790" y="745" />
            </Array>
          </mxGeometry>
        </mxCell>
        <mxCell id="4WN-YmiEMWMEpIuRIN3w-1" value="" style="edgeStyle=none;html=1;endArrow=block;endFill=0;endSize=12;verticalAlign=bottom;rounded=0;strokeColor=default;align=center;fontFamily=Helvetica;fontSize=11;fontColor=default;labelBackgroundColor=default;exitX=0.5;exitY=0;exitDx=0;exitDy=0;exitPerimeter=0;" edge="1" parent="1" source="d3dFBQkpbvgiBbpjayFe-1" target="d3dFBQkpbvgiBbpjayFe-4">
          <mxGeometry width="160" relative="1" as="geometry">
            <mxPoint x="180" y="540" as="sourcePoint" />
            <mxPoint x="340" y="540" as="targetPoint" />
          </mxGeometry>
        </mxCell>
        <mxCell id="4WN-YmiEMWMEpIuRIN3w-2" value="" style="edgeStyle=none;html=1;endArrow=block;endFill=0;endSize=12;verticalAlign=bottom;rounded=0;strokeColor=default;align=center;fontFamily=Helvetica;fontSize=11;fontColor=default;labelBackgroundColor=default;exitX=0.5;exitY=0;exitDx=0;exitDy=0;exitPerimeter=0;" edge="1" parent="1" source="d3dFBQkpbvgiBbpjayFe-3" target="d3dFBQkpbvgiBbpjayFe-1">
          <mxGeometry width="160" relative="1" as="geometry">
            <mxPoint x="170" y="455" as="sourcePoint" />
            <mxPoint x="170" y="290" as="targetPoint" />
          </mxGeometry>
        </mxCell>
        <mxCell id="4WN-YmiEMWMEpIuRIN3w-3" value="" style="edgeStyle=none;html=1;endArrow=block;endFill=0;endSize=12;verticalAlign=bottom;rounded=0;strokeColor=default;align=center;fontFamily=Helvetica;fontSize=11;fontColor=default;labelBackgroundColor=default;exitX=0.5;exitY=0;exitDx=0;exitDy=0;exitPerimeter=0;" edge="1" parent="1" source="d3dFBQkpbvgiBbpjayFe-2" target="d3dFBQkpbvgiBbpjayFe-3">
          <mxGeometry width="160" relative="1" as="geometry">
            <mxPoint x="94.5" y="900" as="sourcePoint" />
            <mxPoint x="94.5" y="740" as="targetPoint" />
          </mxGeometry>
        </mxCell>
        <mxCell id="d3dFBQkpbvgiBbpjayFe-5" value="Gérer des tâches associées à une user story" style="ellipse;whiteSpace=wrap;html=1;fontFamily=Helvetica;fontSize=11;fontColor=default;labelBackgroundColor=default;" vertex="1" parent="1">
          <mxGeometry x="310" y="430" width="140" height="70" as="geometry" />
        </mxCell>
        <mxCell id="4WN-YmiEMWMEpIuRIN3w-14" value="Créer une user story" style="ellipse;whiteSpace=wrap;html=1;fontFamily=Helvetica;fontSize=11;fontColor=default;labelBackgroundColor=default;" vertex="1" parent="1">
          <mxGeometry x="610" y="610" width="140" height="70" as="geometry" />
        </mxCell>
        <mxCell id="4WN-YmiEMWMEpIuRIN3w-15" value="Modifier une user story" style="ellipse;whiteSpace=wrap;html=1;fontFamily=Helvetica;fontSize=11;fontColor=default;labelBackgroundColor=default;" vertex="1" parent="1">
          <mxGeometry x="610" y="700" width="140" height="70" as="geometry" />
        </mxCell>
        <mxCell id="4WN-YmiEMWMEpIuRIN3w-16" value="Supprimer une user story" style="ellipse;whiteSpace=wrap;html=1;fontFamily=Helvetica;fontSize=11;fontColor=default;labelBackgroundColor=default;" vertex="1" parent="1">
          <mxGeometry x="610" y="790" width="140" height="70" as="geometry" />
        </mxCell>
        <mxCell id="4WN-YmiEMWMEpIuRIN3w-17" value="&amp;lt;&amp;lt;include&amp;gt;&amp;gt;" style="edgeStyle=none;html=1;endArrow=open;verticalAlign=bottom;dashed=1;labelBackgroundColor=none;rounded=0;strokeColor=default;align=center;fontFamily=Helvetica;fontSize=11;fontColor=default;exitX=1;exitY=0.5;exitDx=0;exitDy=0;entryX=0;entryY=0.5;entryDx=0;entryDy=0;" edge="1" parent="1" source="d3dFBQkpbvgiBbpjayFe-7" target="4WN-YmiEMWMEpIuRIN3w-14">
          <mxGeometry width="160" relative="1" as="geometry">
            <mxPoint x="400" y="580" as="sourcePoint" />
            <mxPoint x="560" y="580" as="targetPoint" />
          </mxGeometry>
        </mxCell>
        <mxCell id="4WN-YmiEMWMEpIuRIN3w-18" value="&amp;lt;&amp;lt;include&amp;gt;&amp;gt;" style="edgeStyle=none;html=1;endArrow=open;verticalAlign=bottom;dashed=1;labelBackgroundColor=none;rounded=0;strokeColor=default;align=center;fontFamily=Helvetica;fontSize=11;fontColor=default;exitX=1;exitY=0.5;exitDx=0;exitDy=0;entryX=0;entryY=0.5;entryDx=0;entryDy=0;" edge="1" parent="1" source="d3dFBQkpbvgiBbpjayFe-7" target="4WN-YmiEMWMEpIuRIN3w-15">
          <mxGeometry width="160" relative="1" as="geometry">
            <mxPoint x="440" y="710" as="sourcePoint" />
            <mxPoint x="600" y="710" as="targetPoint" />
          </mxGeometry>
        </mxCell>
        <mxCell id="4WN-YmiEMWMEpIuRIN3w-19" value="&amp;lt;&amp;lt;include&amp;gt;&amp;gt;" style="edgeStyle=none;html=1;endArrow=open;verticalAlign=bottom;dashed=1;labelBackgroundColor=none;rounded=0;strokeColor=default;align=center;fontFamily=Helvetica;fontSize=11;fontColor=default;exitX=1;exitY=0.5;exitDx=0;exitDy=0;entryX=0;entryY=0.5;entryDx=0;entryDy=0;" edge="1" parent="1" source="d3dFBQkpbvgiBbpjayFe-7" target="4WN-YmiEMWMEpIuRIN3w-16">
          <mxGeometry width="160" relative="1" as="geometry">
            <mxPoint x="430" y="700" as="sourcePoint" />
            <mxPoint x="590" y="790" as="targetPoint" />
          </mxGeometry>
        </mxCell>
      </root>
    </mxGraphModel>
  </diagram>
  <diagram id="KJp9KzztMlCPQc_WQKY3" name="Sprints">
    <mxGraphModel grid="1" page="1" gridSize="10" guides="1" tooltips="1" connect="1" arrows="1" fold="1" pageScale="1" pageWidth="827" pageHeight="1169" math="0" shadow="0">
      <root>
        <mxCell id="0" />
        <mxCell id="1" parent="0" />
        <mxCell id="FNrZmSFZU8yCSqWZOzmf-3" style="edgeStyle=none;rounded=0;orthogonalLoop=1;jettySize=auto;html=1;entryX=0;entryY=0.5;entryDx=0;entryDy=0;strokeColor=default;align=center;verticalAlign=middle;fontFamily=Helvetica;fontSize=11;fontColor=default;labelBackgroundColor=default;endArrow=none;endFill=0;" edge="1" parent="1" source="rrCe4mnnTN3IOyUEGS7K-1" target="JeauBGVWn5Tf5IcLJ01r-9">
          <mxGeometry relative="1" as="geometry" />
        </mxCell>
        <mxCell id="FNrZmSFZU8yCSqWZOzmf-4" style="edgeStyle=none;rounded=0;orthogonalLoop=1;jettySize=auto;html=1;entryX=0;entryY=0.5;entryDx=0;entryDy=0;strokeColor=default;align=center;verticalAlign=middle;fontFamily=Helvetica;fontSize=11;fontColor=default;labelBackgroundColor=default;endArrow=none;endFill=0;" edge="1" parent="1" source="rrCe4mnnTN3IOyUEGS7K-1" target="JeauBGVWn5Tf5IcLJ01r-10">
          <mxGeometry relative="1" as="geometry" />
        </mxCell>
        <mxCell id="FNrZmSFZU8yCSqWZOzmf-5" style="edgeStyle=none;rounded=0;orthogonalLoop=1;jettySize=auto;html=1;entryX=0;entryY=0.5;entryDx=0;entryDy=0;strokeColor=default;align=center;verticalAlign=middle;fontFamily=Helvetica;fontSize=11;fontColor=default;labelBackgroundColor=default;endArrow=none;endFill=0;" edge="1" parent="1" source="rrCe4mnnTN3IOyUEGS7K-1" target="JeauBGVWn5Tf5IcLJ01r-11">
          <mxGeometry relative="1" as="geometry" />
        </mxCell>
        <mxCell id="FNrZmSFZU8yCSqWZOzmf-6" style="edgeStyle=none;rounded=0;orthogonalLoop=1;jettySize=auto;html=1;entryX=0;entryY=0.5;entryDx=0;entryDy=0;strokeColor=default;align=center;verticalAlign=middle;fontFamily=Helvetica;fontSize=11;fontColor=default;labelBackgroundColor=default;endArrow=none;endFill=0;" edge="1" parent="1" source="rrCe4mnnTN3IOyUEGS7K-1" target="qbfASjW3VZqlD1F-Nq00-1">
          <mxGeometry relative="1" as="geometry" />
        </mxCell>
        <mxCell id="rrCe4mnnTN3IOyUEGS7K-1" value="Utilisateur PRODUCT OWNER&lt;div&gt;&lt;br&gt;&lt;/div&gt;" style="shape=umlActor;html=1;verticalLabelPosition=bottom;verticalAlign=top;align=center;" vertex="1" parent="1">
          <mxGeometry x="90" y="250" width="30" height="60" as="geometry" />
        </mxCell>
        <mxCell id="rrCe4mnnTN3IOyUEGS7K-2" value="Utilisateur SCRUM MASTER&lt;div&gt;&lt;br&gt;&lt;/div&gt;" style="shape=umlActor;html=1;verticalLabelPosition=bottom;verticalAlign=top;align=center;" vertex="1" parent="1">
          <mxGeometry x="90" y="400" width="30" height="60" as="geometry" />
        </mxCell>
        <mxCell id="JeauBGVWn5Tf5IcLJ01r-5" style="edgeStyle=none;rounded=0;orthogonalLoop=1;jettySize=auto;html=1;entryX=0;entryY=0.5;entryDx=0;entryDy=0;strokeColor=default;align=center;verticalAlign=middle;fontFamily=Helvetica;fontSize=11;fontColor=default;labelBackgroundColor=default;endArrow=none;endFill=0;" edge="1" parent="1" source="rrCe4mnnTN3IOyUEGS7K-1" target="JeauBGVWn5Tf5IcLJ01r-4">
          <mxGeometry relative="1" as="geometry" />
        </mxCell>
        <mxCell id="LKuQAdPh_P104H2Q4HrA-2" style="edgeStyle=none;rounded=0;orthogonalLoop=1;jettySize=auto;html=1;entryX=0;entryY=0.5;entryDx=0;entryDy=0;strokeColor=default;align=center;verticalAlign=middle;fontFamily=Helvetica;fontSize=11;fontColor=default;labelBackgroundColor=default;endArrow=none;endFill=0;" edge="1" parent="1" source="rrCe4mnnTN3IOyUEGS7K-3" target="LKuQAdPh_P104H2Q4HrA-1">
          <mxGeometry relative="1" as="geometry" />
        </mxCell>
        <mxCell id="rrCe4mnnTN3IOyUEGS7K-3" value="Utilisateur MEMBRE&lt;div&gt;&lt;br&gt;&lt;/div&gt;" style="shape=umlActor;html=1;verticalLabelPosition=bottom;verticalAlign=top;align=center;" vertex="1" parent="1">
          <mxGeometry x="90" y="60" width="30" height="60" as="geometry" />
        </mxCell>
        <mxCell id="rrCe4mnnTN3IOyUEGS7K-4" value="" style="edgeStyle=none;html=1;endArrow=block;endFill=0;endSize=12;verticalAlign=bottom;rounded=0;strokeColor=default;align=center;fontFamily=Helvetica;fontSize=11;fontColor=default;labelBackgroundColor=default;exitX=0.5;exitY=0;exitDx=0;exitDy=0;exitPerimeter=0;" edge="1" parent="1" source="rrCe4mnnTN3IOyUEGS7K-2" target="rrCe4mnnTN3IOyUEGS7K-1">
          <mxGeometry width="160" relative="1" as="geometry">
            <mxPoint x="90" y="465" as="sourcePoint" />
            <mxPoint x="90" y="325" as="targetPoint" />
          </mxGeometry>
        </mxCell>
        <mxCell id="rrCe4mnnTN3IOyUEGS7K-5" value="" style="edgeStyle=none;html=1;endArrow=block;endFill=0;endSize=12;verticalAlign=bottom;rounded=0;strokeColor=default;align=center;fontFamily=Helvetica;fontSize=11;fontColor=default;labelBackgroundColor=default;exitX=0.5;exitY=0;exitDx=0;exitDy=0;exitPerimeter=0;" edge="1" parent="1" source="rrCe4mnnTN3IOyUEGS7K-1" target="rrCe4mnnTN3IOyUEGS7K-3">
          <mxGeometry width="160" relative="1" as="geometry">
            <mxPoint x="40" y="230" as="sourcePoint" />
            <mxPoint x="150" y="180" as="targetPoint" />
          </mxGeometry>
        </mxCell>
        <mxCell id="JeauBGVWn5Tf5IcLJ01r-1" value="Créer un sprint" style="ellipse;whiteSpace=wrap;html=1;fontFamily=Helvetica;fontSize=11;fontColor=default;labelBackgroundColor=default;" vertex="1" parent="1">
          <mxGeometry x="600" y="130" width="140" height="70" as="geometry" />
        </mxCell>
        <mxCell id="JeauBGVWn5Tf5IcLJ01r-2" value="Modifier les infos d&#39;un sprint" style="ellipse;whiteSpace=wrap;html=1;fontFamily=Helvetica;fontSize=11;fontColor=default;labelBackgroundColor=default;" vertex="1" parent="1">
          <mxGeometry x="600" y="220" width="140" height="70" as="geometry" />
        </mxCell>
        <mxCell id="JeauBGVWn5Tf5IcLJ01r-3" value="Supprimer un sprint" style="ellipse;whiteSpace=wrap;html=1;fontFamily=Helvetica;fontSize=11;fontColor=default;labelBackgroundColor=default;" vertex="1" parent="1">
          <mxGeometry x="600" y="310" width="140" height="70" as="geometry" />
        </mxCell>
        <mxCell id="JeauBGVWn5Tf5IcLJ01r-4" value="Gérer les sprints" style="ellipse;whiteSpace=wrap;html=1;fontFamily=Helvetica;fontSize=11;fontColor=default;labelBackgroundColor=default;" vertex="1" parent="1">
          <mxGeometry x="280" y="130" width="140" height="70" as="geometry" />
        </mxCell>
        <mxCell id="JeauBGVWn5Tf5IcLJ01r-6" value="&amp;lt;&amp;lt;include&amp;gt;&amp;gt;" style="edgeStyle=none;html=1;endArrow=open;verticalAlign=bottom;dashed=1;labelBackgroundColor=none;rounded=0;strokeColor=default;align=center;fontFamily=Helvetica;fontSize=11;fontColor=default;entryX=0;entryY=0.5;entryDx=0;entryDy=0;" edge="1" parent="1" target="JeauBGVWn5Tf5IcLJ01r-2">
          <mxGeometry width="160" relative="1" as="geometry">
            <mxPoint x="420" y="170" as="sourcePoint" />
            <mxPoint x="490" y="540" as="targetPoint" />
          </mxGeometry>
        </mxCell>
        <mxCell id="JeauBGVWn5Tf5IcLJ01r-7" value="&amp;lt;&amp;lt;include&amp;gt;&amp;gt;" style="edgeStyle=none;html=1;endArrow=open;verticalAlign=bottom;dashed=1;labelBackgroundColor=none;rounded=0;strokeColor=default;align=center;fontFamily=Helvetica;fontSize=11;fontColor=default;exitX=1;exitY=0.5;exitDx=0;exitDy=0;entryX=0;entryY=0.5;entryDx=0;entryDy=0;" edge="1" parent="1" source="JeauBGVWn5Tf5IcLJ01r-4" target="JeauBGVWn5Tf5IcLJ01r-1">
          <mxGeometry width="160" relative="1" as="geometry">
            <mxPoint x="330" y="540" as="sourcePoint" />
            <mxPoint x="490" y="540" as="targetPoint" />
          </mxGeometry>
        </mxCell>
        <mxCell id="JeauBGVWn5Tf5IcLJ01r-8" value="&amp;lt;&amp;lt;include&amp;gt;&amp;gt;" style="edgeStyle=none;html=1;endArrow=open;verticalAlign=bottom;dashed=1;labelBackgroundColor=none;rounded=0;strokeColor=default;align=center;fontFamily=Helvetica;fontSize=11;fontColor=default;entryX=0;entryY=0.5;entryDx=0;entryDy=0;exitX=1;exitY=0.5;exitDx=0;exitDy=0;" edge="1" parent="1" source="JeauBGVWn5Tf5IcLJ01r-4" target="JeauBGVWn5Tf5IcLJ01r-3">
          <mxGeometry width="160" relative="1" as="geometry">
            <mxPoint x="400" y="230" as="sourcePoint" />
            <mxPoint x="580" y="315" as="targetPoint" />
          </mxGeometry>
        </mxCell>
        <mxCell id="JeauBGVWn5Tf5IcLJ01r-9" value="Attacher des user stories à un sprint" style="ellipse;whiteSpace=wrap;html=1;fontFamily=Helvetica;fontSize=11;fontColor=default;labelBackgroundColor=default;" vertex="1" parent="1">
          <mxGeometry x="280" y="220" width="140" height="70" as="geometry" />
        </mxCell>
        <mxCell id="JeauBGVWn5Tf5IcLJ01r-10" value="Faire évoluer l&#39;état d&#39;une tâche ou fiche de bug pour le sprint" style="ellipse;whiteSpace=wrap;html=1;fontFamily=Helvetica;fontSize=11;fontColor=default;labelBackgroundColor=default;" vertex="1" parent="1">
          <mxGeometry x="280" y="310" width="140" height="70" as="geometry" />
        </mxCell>
        <mxCell id="JeauBGVWn5Tf5IcLJ01r-11" value="Modifier le workflow par défaut des tâches et fiches de bugs (A FAIRE, EN COURS, TERMINE)&amp;nbsp;" style="ellipse;whiteSpace=wrap;html=1;fontFamily=Helvetica;fontSize=11;fontColor=default;labelBackgroundColor=default;" vertex="1" parent="1">
          <mxGeometry x="280" y="400" width="140" height="70" as="geometry" />
        </mxCell>
        <mxCell id="qbfASjW3VZqlD1F-Nq00-1" value="Planifier des évènements pour le sprint" style="ellipse;whiteSpace=wrap;html=1;fontFamily=Helvetica;fontSize=11;fontColor=default;labelBackgroundColor=default;" vertex="1" parent="1">
          <mxGeometry x="280" y="490" width="140" height="70" as="geometry" />
        </mxCell>
        <mxCell id="qbfASjW3VZqlD1F-Nq00-2" value="Planifier une demo" style="ellipse;whiteSpace=wrap;html=1;fontFamily=Helvetica;fontSize=11;fontColor=default;labelBackgroundColor=default;" vertex="1" parent="1">
          <mxGeometry x="600" y="490" width="140" height="70" as="geometry" />
        </mxCell>
        <mxCell id="qbfASjW3VZqlD1F-Nq00-3" value="Planifier une rétrospective" style="ellipse;whiteSpace=wrap;html=1;fontFamily=Helvetica;fontSize=11;fontColor=default;labelBackgroundColor=default;" vertex="1" parent="1">
          <mxGeometry x="600" y="580" width="140" height="70" as="geometry" />
        </mxCell>
        <mxCell id="qbfASjW3VZqlD1F-Nq00-4" value="Planifier d&#39;autres évènements" style="ellipse;whiteSpace=wrap;html=1;fontFamily=Helvetica;fontSize=11;fontColor=default;labelBackgroundColor=default;" vertex="1" parent="1">
          <mxGeometry x="600" y="670" width="140" height="70" as="geometry" />
        </mxCell>
        <mxCell id="qbfASjW3VZqlD1F-Nq00-5" value="&amp;lt;&amp;lt;include&amp;gt;&amp;gt;" style="edgeStyle=none;html=1;endArrow=open;verticalAlign=bottom;dashed=1;labelBackgroundColor=none;rounded=0;strokeColor=default;align=center;fontFamily=Helvetica;fontSize=11;fontColor=default;exitX=1;exitY=0.5;exitDx=0;exitDy=0;entryX=0;entryY=0.5;entryDx=0;entryDy=0;" edge="1" parent="1" source="qbfASjW3VZqlD1F-Nq00-1" target="qbfASjW3VZqlD1F-Nq00-2">
          <mxGeometry width="160" relative="1" as="geometry">
            <mxPoint x="470" y="585" as="sourcePoint" />
            <mxPoint x="550" y="585" as="targetPoint" />
          </mxGeometry>
        </mxCell>
        <mxCell id="qbfASjW3VZqlD1F-Nq00-6" value="&amp;lt;&amp;lt;include&amp;gt;&amp;gt;" style="edgeStyle=none;html=1;endArrow=open;verticalAlign=bottom;dashed=1;labelBackgroundColor=none;rounded=0;strokeColor=default;align=center;fontFamily=Helvetica;fontSize=11;fontColor=default;exitX=1;exitY=0.5;exitDx=0;exitDy=0;entryX=0;entryY=0.5;entryDx=0;entryDy=0;" edge="1" parent="1" source="qbfASjW3VZqlD1F-Nq00-1" target="qbfASjW3VZqlD1F-Nq00-3">
          <mxGeometry width="160" relative="1" as="geometry">
            <mxPoint x="440" y="625" as="sourcePoint" />
            <mxPoint x="520" y="710" as="targetPoint" />
          </mxGeometry>
        </mxCell>
        <mxCell id="qbfASjW3VZqlD1F-Nq00-7" value="&amp;lt;&amp;lt;include&amp;gt;&amp;gt;" style="edgeStyle=none;html=1;endArrow=open;verticalAlign=bottom;dashed=1;labelBackgroundColor=none;rounded=0;strokeColor=default;align=center;fontFamily=Helvetica;fontSize=11;fontColor=default;entryX=0;entryY=0.5;entryDx=0;entryDy=0;exitX=1;exitY=0.5;exitDx=0;exitDy=0;" edge="1" parent="1" source="qbfASjW3VZqlD1F-Nq00-1" target="qbfASjW3VZqlD1F-Nq00-4">
          <mxGeometry width="160" relative="1" as="geometry">
            <mxPoint x="470" y="525" as="sourcePoint" />
            <mxPoint x="520" y="787.5" as="targetPoint" />
          </mxGeometry>
        </mxCell>
        <mxCell id="FNrZmSFZU8yCSqWZOzmf-1" value="Attacher un document à un évènement" style="ellipse;whiteSpace=wrap;html=1;fontFamily=Helvetica;fontSize=11;fontColor=default;labelBackgroundColor=default;" vertex="1" parent="1">
          <mxGeometry x="280" y="610" width="140" height="70" as="geometry" />
        </mxCell>
        <mxCell id="FNrZmSFZU8yCSqWZOzmf-2" value="&amp;lt;&amp;lt;extend&amp;gt;&amp;gt;" style="edgeStyle=none;html=1;startArrow=open;endArrow=none;startSize=12;verticalAlign=bottom;dashed=1;labelBackgroundColor=none;rounded=0;strokeColor=default;align=center;fontFamily=Helvetica;fontSize=11;fontColor=default;entryX=0.5;entryY=0;entryDx=0;entryDy=0;exitX=0.5;exitY=1;exitDx=0;exitDy=0;" edge="1" parent="1" source="qbfASjW3VZqlD1F-Nq00-1" target="FNrZmSFZU8yCSqWZOzmf-1">
          <mxGeometry width="160" relative="1" as="geometry">
            <mxPoint x="50" y="360" as="sourcePoint" />
            <mxPoint x="210" y="360" as="targetPoint" />
          </mxGeometry>
        </mxCell>
        <mxCell id="LKuQAdPh_P104H2Q4HrA-1" value="Consulter le backlog du sprint" style="ellipse;whiteSpace=wrap;html=1;fontFamily=Helvetica;fontSize=11;fontColor=default;labelBackgroundColor=default;" vertex="1" parent="1">
          <mxGeometry x="280" y="40" width="140" height="70" as="geometry" />
        </mxCell>
        <mxCell id="syhUnT6GiglVmejR5Jmg-1" value="Planifier un planing poker" style="ellipse;whiteSpace=wrap;html=1;fontFamily=Helvetica;fontSize=11;fontColor=default;labelBackgroundColor=default;" vertex="1" parent="1">
          <mxGeometry x="600" y="400" width="140" height="70" as="geometry" />
        </mxCell>
        <mxCell id="syhUnT6GiglVmejR5Jmg-2" value="&amp;lt;&amp;lt;include&amp;gt;&amp;gt;" style="edgeStyle=none;html=1;endArrow=open;verticalAlign=bottom;dashed=1;labelBackgroundColor=none;rounded=0;strokeColor=default;align=center;fontFamily=Helvetica;fontSize=11;fontColor=default;entryX=0;entryY=0.5;entryDx=0;entryDy=0;" edge="1" parent="1" source="qbfASjW3VZqlD1F-Nq00-1" target="syhUnT6GiglVmejR5Jmg-1">
          <mxGeometry width="160" relative="1" as="geometry">
            <mxPoint x="420" y="490" as="sourcePoint" />
            <mxPoint x="600" y="490" as="targetPoint" />
          </mxGeometry>
        </mxCell>
      </root>
    </mxGraphModel>
  </diagram>
</mxfile>
